<?xml version="1.0" encoding="UTF-8"?>
<svg width="45px" height="51px" viewBox="0 0 45 51" version="1.1" xmlns="http://www.w3.org/2000/svg" xmlns:xlink="http://www.w3.org/1999/xlink">
    <!-- Generator: Sketch 51.2 (57519) - http://www.bohemiancoding.com/sketch -->
    <title>Shape</title>
    <desc>Created with Sketch.</desc>
    <defs></defs>
    <g id="Page-1" stroke="none" stroke-width="1" fill="none" fill-rule="evenodd">
        <g id="Artboard" transform="translate(-118.000000, -455.000000)" fill="#767676" fill-rule="nonzero">
            <g id="Group-3" transform="translate(97.000000, 385.000000)">
                <g id="touch-of-one-finger-of-solid-black-hand-symbol" transform="translate(21.000000, 62.000000)">
                    <path d="M41.6093226,22.875 C39.9140393,22.875 38.430611,24.3625556 38.430611,26.0625556 L38.430611,30.7375556 L38.430611,31.375 L36.3116177,31.375 L36.3116177,26.4875556 L36.3116177,23.9375556 C36.3116177,22.2375556 34.8283003,20.75 33.1329062,20.75 C31.4376229,20.75 29.9541946,22.2375556 29.9541946,23.9375556 L29.9541946,26.0625556 L29.9541946,29.2501111 L27.8352013,29.2501111 L27.8352013,26.0625556 L27.8352013,21.8125556 C27.8352013,20.1125556 26.3518838,18.625 24.6564897,18.625 C22.9612064,18.625 21.4777781,20.1125556 21.4777781,21.8125556 L21.4777781,25.85 L21.4777781,31.375 L19.3587848,31.375 L19.3587848,26.0625556 L19.3587848,11.1875556 C19.3587848,9.48755556 17.8753565,8 16.1800732,8 C14.48479,8 13.0013617,9.48755556 13.0013617,11.1875556 L13.0013617,33.075 C8.55118763,28.4 2.82966192,23.3 0.498702798,25.6374444 C-1.83225633,27.975 4.31320101,34.35 12.5776517,48.375 C16.3920391,54.75 21.0540681,59 29.1066637,59 C37.7949352,59 45,51.775 45,43.0624444 L45,36.05 L45,26.0624444 C44.7880342,24.3625556 43.3047167,22.875 41.6093226,22.875 Z" id="Shape"></path>
                </g>
            </g>
        </g>
    </g>
</svg>